<svg width="26" height="25" viewBox="0 0 26 25" fill="none" xmlns="http://www.w3.org/2000/svg">
<g clip-path="url(#clip0_2_31)">
<path d="M13.2647 0C10.7924 0 8.3757 0.733112 6.32009 2.10663C4.26447 3.48015 2.66232 5.43238 1.71622 7.71646C0.770126 10.0005 0.522584 12.5139 1.0049 14.9386C1.48721 17.3634 2.67772 19.5907 4.42588 21.3388C6.17404 23.087 8.40132 24.2775 10.8261 24.7598C13.2508 25.2421 15.7642 24.9946 18.0483 24.0485C20.3323 23.1024 22.2846 21.5002 23.6581 19.4446C25.0316 17.389 25.7647 14.9723 25.7647 12.5C25.7647 9.18479 24.4478 6.00537 22.1035 3.66117C19.7593 1.31696 16.5799 0 13.2647 0ZM7.67816 6.87575H18.8588C19.0091 6.87624 19.1586 6.89652 19.3036 6.93607L19.2508 6.98884L14.2523 12.6508C14.1306 12.79 13.9805 12.9016 13.8122 12.9781C13.6438 13.0545 13.461 13.0941 13.276 13.0941C13.0911 13.0941 12.9083 13.0545 12.7399 12.9781C12.5715 12.9016 12.4214 12.79 12.2997 12.6508L7.24089 6.92853C7.38366 6.89158 7.53071 6.87383 7.67816 6.87575ZM20.5777 15.0784C20.5777 15.8782 20.26 16.6453 19.6945 17.2108C19.1289 17.7764 18.3619 18.0941 17.5621 18.0941H8.98999C8.19018 18.0941 7.42313 17.7764 6.85758 17.2108C6.29203 16.6453 5.9743 15.8782 5.9743 15.0784V8.60223C5.97528 8.36622 6.024 8.13285 6.11755 7.91616L11.1688 13.6535C11.4334 13.9548 11.7593 14.1962 12.1246 14.3615C12.4899 14.5269 12.8863 14.6124 13.2873 14.6124C13.6883 14.6124 14.0847 14.5269 14.45 14.3615C14.8154 14.1962 15.1412 13.9548 15.4058 13.6535L20.3666 7.99156L20.427 7.90862C20.5213 8.1277 20.57 8.3637 20.5702 8.60223L20.5777 15.0784Z" fill="#DDAE76"/>
</g>
<defs>
<clipPath id="clip0_2_31">
<rect width="25" height="25" fill="white" transform="translate(0.764709)"/>
</clipPath>
</defs>
</svg>
