<svg width="26" height="25" viewBox="0 0 26 25" fill="none" xmlns="http://www.w3.org/2000/svg">
<g clip-path="url(#clip0_2_35)">
<path d="M13.0294 0C10.5572 0 8.14041 0.733112 6.0848 2.10663C4.02918 3.48015 2.42703 5.43238 1.48093 7.71646C0.534835 10.0005 0.287293 12.5139 0.769609 14.9386C1.25192 17.3634 2.44243 19.5907 4.19059 21.3388C5.93875 23.087 8.16603 24.2775 10.5908 24.7598C13.0156 25.2421 15.5289 24.9946 17.813 24.0485C20.097 23.1024 22.0493 21.5002 23.4228 19.4446C24.7963 17.389 25.5294 14.9723 25.5294 12.5C25.5294 9.18479 24.2125 6.00537 21.8683 3.66117C19.5241 1.31696 16.3446 0 13.0294 0ZM10.0967 18.6897C10.0967 18.7517 10.0721 18.8111 10.0282 18.8549C9.98439 18.8988 9.92494 18.9234 9.86296 18.9234H6.99806C6.93608 18.9234 6.87663 18.8988 6.8328 18.8549C6.78897 18.8111 6.76435 18.7517 6.76435 18.6897V9.48432C6.76435 9.42233 6.78897 9.36289 6.8328 9.31906C6.87663 9.27523 6.93608 9.2506 6.99806 9.2506H9.86296C9.92494 9.2506 9.98439 9.27523 10.0282 9.31906C10.0721 9.36289 10.0967 9.42233 10.0967 9.48432V18.6897ZM8.43051 8.45145C8.05656 8.44996 7.69144 8.33771 7.38124 8.12887C7.07104 7.92004 6.82967 7.62397 6.6876 7.27807C6.54553 6.93216 6.50913 6.55191 6.58299 6.18533C6.65686 5.81875 6.83768 5.48227 7.10263 5.21838C7.36757 4.95448 7.70477 4.775 8.07164 4.7026C8.43851 4.63019 8.81861 4.6681 9.16395 4.81155C9.50929 4.95499 9.80439 5.19754 10.012 5.50857C10.2196 5.8196 10.3304 6.18516 10.3304 6.55911C10.3304 6.80825 10.2812 7.05494 10.1856 7.28502C10.0901 7.5151 9.94999 7.72405 9.77347 7.89987C9.59695 8.07569 9.38745 8.21492 9.15699 8.30957C8.92653 8.40423 8.67965 8.45244 8.43051 8.45145ZM20.8174 18.6897C20.8184 18.72 20.8133 18.7502 20.8024 18.7786C20.7915 18.8069 20.775 18.8327 20.7539 18.8545C20.7328 18.8763 20.7075 18.8937 20.6796 18.9055C20.6516 18.9173 20.6216 18.9234 20.5912 18.9234H17.7263C17.696 18.9234 17.666 18.9173 17.638 18.9055C17.6101 18.8937 17.5848 18.8763 17.5637 18.8545C17.5426 18.8327 17.5261 18.8069 17.5152 18.7786C17.5043 18.7502 17.4992 18.72 17.5002 18.6897V14.2114C17.5002 12.9599 17.4022 12.0024 16.2411 12.0024C15.0801 12.0024 14.7333 12.598 14.7333 14.136V18.6595C14.7333 18.7215 14.7087 18.781 14.6648 18.8248C14.621 18.8686 14.5616 18.8932 14.4996 18.8932H11.6648C11.6028 18.8932 11.5434 18.8686 11.4996 18.8248C11.4557 18.781 11.4311 18.7215 11.4311 18.6595V9.48432C11.4311 9.42233 11.4557 9.36289 11.4996 9.31906C11.5434 9.27523 11.6028 9.2506 11.6648 9.2506H14.4091C14.4394 9.25059 14.4695 9.25668 14.4974 9.26851C14.5254 9.28035 14.5507 9.29768 14.5718 9.31949C14.5929 9.3413 14.6094 9.36713 14.6203 9.39545C14.6312 9.42377 14.6363 9.45399 14.6353 9.48432V10.0799C14.9601 9.74213 15.3518 9.47581 15.7854 9.29797C16.219 9.12012 16.6849 9.03466 17.1534 9.04704C20.3877 9.04704 20.8174 11.3767 20.8174 13.661V18.6897Z" fill="#DDAE76"/>
</g>
<defs>
<clipPath id="clip0_2_35">
<rect width="25" height="25" fill="white" transform="translate(0.529419)"/>
</clipPath>
</defs>
</svg>
