<svg width="26" height="25" viewBox="0 0 26 25" fill="none" xmlns="http://www.w3.org/2000/svg">
<g clip-path="url(#clip0_2_39)">
<path d="M12.7941 0C10.3219 0 7.90512 0.733112 5.84951 2.10663C3.79389 3.48015 2.19174 5.43238 1.24564 7.71646C0.299544 10.0005 0.0520028 12.5139 0.534318 14.9386C1.01663 17.3634 2.20714 19.5907 3.9553 21.3388C5.70346 23.087 7.93074 24.2775 10.3555 24.7598C12.7803 25.2421 15.2936 24.9946 17.5777 24.0485C19.8618 23.1024 21.814 21.5002 23.1875 19.4446C24.561 17.389 25.2941 14.9723 25.2941 12.5C25.2941 9.18479 23.9772 6.00537 21.633 3.66117C19.2888 1.31696 16.1093 0 12.7941 0V0ZM17.7143 6.30651H16.245C15.9954 6.27391 15.7418 6.29778 15.5027 6.37638C15.2636 6.45497 15.0452 6.58627 14.8636 6.76058C14.6821 6.93489 14.542 7.14776 14.4538 7.38347C14.3655 7.61917 14.3314 7.87168 14.3538 8.12236V10.2999H17.5786L17.0588 13.6603H14.3538V21.7676H10.7296V13.6603H7.78359V10.2999H10.7296V7.74563C10.7296 4.83725 12.4626 3.22483 15.1148 3.22483C15.9856 3.2372 16.8544 3.31274 17.7143 3.45087V6.30651Z" fill="#DDAE76"/>
</g>
<defs>
<clipPath id="clip0_2_39">
<rect width="25" height="25" fill="white" transform="translate(0.294128)"/>
</clipPath>
</defs>
</svg>
