<svg width="26" height="25" viewBox="0 0 26 25" fill="none" xmlns="http://www.w3.org/2000/svg">
<g clip-path="url(#clip0_2_43)">
<path d="M12.6191 10.1115C12.1467 10.1115 11.6849 10.2516 11.2921 10.514C10.8993 10.7765 10.5932 11.1495 10.4124 11.586C10.2316 12.0224 10.1843 12.5026 10.2765 12.966C10.3687 13.4293 10.5962 13.8549 10.9302 14.1889C11.2642 14.5229 11.6898 14.7504 12.1531 14.8426C12.6165 14.9348 13.0967 14.8875 13.5331 14.7067C13.9696 14.5259 14.3426 14.2198 14.6051 13.827C14.8675 13.4342 15.0076 12.9724 15.0076 12.5C15.0076 11.8665 14.7559 11.259 14.308 10.8111C13.8601 10.3632 13.2526 10.1115 12.6191 10.1115Z" fill="#DDAE76"/>
<path d="M15.5802 6.34418H9.55249C8.72511 6.34815 7.93286 6.67911 7.34851 7.26487C6.76416 7.85063 6.43512 8.64367 6.43314 9.47106V15.4988C6.43314 16.3268 6.76155 17.121 7.34632 17.7072C7.9311 18.2934 8.7245 18.6237 9.55249 18.6257H15.5802C16.4095 18.6257 17.2049 18.2962 17.7913 17.7098C18.3777 17.1234 18.7071 16.3281 18.7071 15.4988V9.47106C18.7051 8.64237 18.375 7.84819 17.7891 7.26222C17.2031 6.67624 16.4089 6.34617 15.5802 6.34418ZM12.6191 16.2297C11.8814 16.2297 11.1604 16.0109 10.547 15.6011C9.93367 15.1913 9.45563 14.6088 9.17335 13.9273C8.89106 13.2458 8.8172 12.4959 8.96111 11.7724C9.10502 11.0489 9.46023 10.3843 9.98183 9.86273C10.5034 9.34113 11.168 8.98591 11.8915 8.842C12.615 8.69809 13.3649 8.77195 14.0464 9.05424C14.7279 9.33653 15.3104 9.81457 15.7202 10.4279C16.13 11.0412 16.3488 11.7623 16.3488 12.5C16.3389 13.4861 15.9428 14.4291 15.2455 15.1264C14.5482 15.8237 13.6052 16.2198 12.6191 16.2297ZM16.5673 9.40325C16.3914 9.40325 16.2195 9.3511 16.0733 9.25341C15.9271 9.15572 15.8131 9.01686 15.7458 8.8544C15.6786 8.69194 15.6609 8.51317 15.6953 8.34071C15.7296 8.16824 15.8142 8.00982 15.9386 7.88548C16.0629 7.76114 16.2213 7.67646 16.3938 7.64215C16.5663 7.60785 16.745 7.62545 16.9075 7.69275C17.07 7.76004 17.2088 7.874 17.3065 8.02021C17.4042 8.16642 17.4563 8.33831 17.4563 8.51416C17.4563 8.74996 17.3627 8.9761 17.1959 9.14284C17.0292 9.30958 16.8031 9.40325 16.5673 9.40325Z" fill="#DDAE76"/>
<path d="M12.5588 0C10.0866 0 7.66982 0.733112 5.6142 2.10663C3.55859 3.48015 1.95643 5.43238 1.01033 7.71646C0.0642387 10.0005 -0.183303 12.5139 0.299012 14.9386C0.781327 17.3634 1.97184 19.5907 3.71999 21.3388C5.46815 23.087 7.69544 24.2775 10.1202 24.7598C12.545 25.2421 15.0583 24.9946 17.3424 24.0485C19.6264 23.1024 21.5787 21.5002 22.9522 19.4446C24.3257 17.389 25.0588 14.9723 25.0588 12.5C25.0588 9.18479 23.7419 6.00537 21.3977 3.66117C19.0535 1.31696 15.874 0 12.5588 0V0ZM20.1312 15.5214C20.1312 16.7204 19.6549 17.8703 18.8071 18.7181C17.9592 19.5659 16.8094 20.0422 15.6104 20.0422H9.58264C8.38365 20.0422 7.23377 19.5659 6.38595 18.7181C5.53814 17.8703 5.06184 16.7204 5.06184 15.5214V9.49367C5.06184 8.29468 5.53814 7.1448 6.38595 6.29699C7.23377 5.44917 8.38365 4.97288 9.58264 4.97288H15.6104C16.8094 4.97288 17.9592 5.44917 18.8071 6.29699C19.6549 7.1448 20.1312 8.29468 20.1312 9.49367V15.5214Z" fill="#DDAE76"/>
</g>
<defs>
<clipPath id="clip0_2_43">
<rect width="25" height="25" fill="white" transform="translate(0.0588226)"/>
</clipPath>
</defs>
</svg>
