<svg width="28" height="25" viewBox="0 0 28 25" fill="none" xmlns="http://www.w3.org/2000/svg">
<g clip-path="url(#clip0_2_49)">
<path d="M14.0588 0C11.4411 0 8.88223 0.733112 6.7057 2.10663C4.52916 3.48015 2.83276 5.43238 1.83101 7.71646C0.829267 10.0005 0.567164 12.5139 1.07785 14.9386C1.58854 17.3634 2.84908 19.5907 4.70007 21.3388C6.55106 23.087 8.90936 24.2775 11.4768 24.7598C14.0442 25.2421 16.7053 24.9946 19.1238 24.0485C21.5422 23.1024 23.6093 21.5002 25.0636 19.4446C26.5179 17.389 27.2941 14.9723 27.2941 12.5C27.2941 9.18479 25.8997 6.00537 23.4176 3.66117C20.9355 1.31696 17.5691 0 14.0588 0V0ZM22.7627 7.39904C22.7605 7.49418 22.727 7.58633 22.667 7.66275C22.2802 8.18322 21.8153 8.64771 21.2868 9.04159C21.207 9.09433 21.0714 9.15461 21.0714 9.2601C21.0714 11.9575 20.3454 14.6549 18.2632 16.6064C16.9244 17.7866 15.2809 18.6138 13.4971 19.0052C11.7133 19.3966 9.85188 19.3385 8.09936 18.8366C7.4154 18.6541 6.75462 18.4014 6.12883 18.0832C5.9214 17.9702 5.72195 17.8647 5.51453 17.7366C5.46666 17.6989 5.42677 17.6612 5.51453 17.6386C5.60229 17.616 5.58633 17.6386 5.74589 17.6386C6.72611 17.7308 7.71588 17.6255 8.64983 17.3297C9.36778 17.1595 10.0306 16.8258 10.5805 16.3577C10.4539 16.3353 10.326 16.3202 10.1975 16.3125C9.55997 16.1943 8.96475 15.9247 8.4679 15.5293C7.97104 15.1339 7.58889 14.6255 7.35742 14.0521C7.35742 13.9617 7.35742 13.9165 7.46113 13.9316C7.90962 13.9766 8.36296 13.9486 8.80141 13.8487C8.64555 13.821 8.49315 13.7781 8.34667 13.7206C7.7455 13.4909 7.21969 13.1146 6.82301 12.6301C6.42633 12.1456 6.17301 11.5702 6.08894 10.9629C6.07739 10.8351 6.07739 10.7065 6.08894 10.5787C6.08894 10.4882 6.14478 10.4656 6.22456 10.5108C6.65155 10.7173 7.11826 10.8404 7.59675 10.8725C7.46049 10.7711 7.33001 10.663 7.20584 10.5485C6.64179 10.0306 6.27256 9.35262 6.15445 8.61804C6.03634 7.88346 6.17583 7.13255 6.55165 6.47981C6.62345 6.38186 6.66334 6.38186 6.7511 6.47981C8.59428 8.42058 11.1372 9.64289 13.8833 9.90808C13.9551 9.90808 13.9631 9.90808 13.9551 9.8252C13.8554 9.36026 13.8554 8.88116 13.9551 8.41621C14.0853 7.93012 14.3278 7.47726 14.6652 7.09011C14.985 6.71277 15.3843 6.40231 15.8379 6.17842C16.2926 5.95174 16.7928 5.81823 17.3058 5.78662C17.8423 5.7525 18.38 5.83498 18.8775 6.02773C19.2423 6.17088 19.5814 6.3666 19.8827 6.6079C19.9478 6.6645 20.0091 6.7249 20.0662 6.78873C20.0882 6.79994 20.1129 6.80581 20.138 6.80581C20.163 6.80581 20.1877 6.79994 20.2098 6.78873C20.9309 6.61774 21.6274 6.36474 22.284 6.03526C22.2957 6.02811 22.3091 6.0237 22.3229 6.02239C22.3368 6.02108 22.3508 6.02291 22.3638 6.02773C22.3638 6.02773 22.3638 6.08047 22.3638 6.11061C22.2404 6.4772 22.0426 6.81758 21.7814 7.11272C21.6139 7.30862 21.199 7.79084 20.9198 7.86618C21.5234 7.77725 22.113 7.61781 22.6749 7.3915C22.7388 7.3915 22.7467 7.34629 22.7467 7.3915L22.7627 7.39904Z" fill="#DDAE76"/>
</g>
<defs>
<clipPath id="clip0_2_49">
<rect width="26.4706" height="25" fill="white" transform="translate(0.823532)"/>
</clipPath>
</defs>
</svg>
