<svg width="26" height="25" viewBox="0 0 26 25" fill="none" xmlns="http://www.w3.org/2000/svg">
<g clip-path="url(#clip0_2_53)">
<path d="M12.815 6.02773C11.7493 6.03192 10.7038 6.31859 9.78492 6.85851C8.86609 7.39843 8.10684 8.17231 7.58453 9.10128C7.06223 10.0302 6.79556 11.0811 6.8117 12.1467C6.82783 13.2123 7.1262 14.2545 7.67639 15.1673L7.83461 15.4234L7.23184 17.6838L9.49224 17.0811L9.74088 17.2318C10.5385 17.7077 11.4354 17.9928 12.3614 18.065C13.2875 18.1371 14.2176 17.9942 15.0793 17.6475C15.9411 17.3008 16.711 16.7597 17.329 16.0663C17.9471 15.3729 18.3965 14.5461 18.6423 13.6504C18.8881 12.7546 18.9235 11.8142 18.7459 10.9025C18.5682 9.99082 18.1823 9.13252 17.6181 8.3946C17.054 7.65668 16.327 7.05912 15.4938 6.64855C14.6607 6.23797 13.7439 6.02551 12.815 6.02773ZM16.3488 14.3159C16.2258 14.581 16.0388 14.8113 15.8047 14.9863C15.5706 15.1612 15.2967 15.2752 15.0076 15.318C14.4934 15.3817 13.9715 15.3008 13.5007 15.0844C13.0546 14.9329 12.6273 14.7306 12.2273 14.4816C11.4313 13.9855 10.738 13.3408 10.1854 12.5829C10.0121 12.3493 9.86144 12.1157 9.71074 11.8671C9.512 11.5444 9.36219 11.194 9.2662 10.8273C9.22717 10.6746 9.20693 10.5177 9.20592 10.3602C9.19106 10.0761 9.24177 9.79242 9.35414 9.53111C9.4665 9.26979 9.63751 9.03784 9.8539 8.85322C9.97654 8.74226 10.1293 8.67015 10.2929 8.64601C10.4566 8.62187 10.6237 8.64678 10.7731 8.7176C11.0896 8.8909 11.2478 9.33544 11.391 9.6519C11.536 9.90577 11.6041 10.1964 11.5869 10.4882C11.5054 10.7584 11.3547 11.0025 11.1499 11.1965C11.0957 11.2468 11.0619 11.3154 11.0549 11.389C11.048 11.4626 11.0684 11.5363 11.1122 11.5958C11.6574 12.5338 12.5048 13.259 13.5157 13.6528C13.5717 13.6864 13.6381 13.698 13.7021 13.6855C13.7661 13.673 13.8232 13.6372 13.8623 13.585C14.0356 13.359 14.2165 12.9295 14.4953 12.8315C14.6789 12.7873 14.8704 12.786 15.0546 12.8278C15.2389 12.8697 15.411 12.9534 15.5576 13.0726C15.8364 13.2384 16.3111 13.4494 16.394 13.8261C16.4283 13.9902 16.4126 14.1608 16.3488 14.3159Z" fill="#DDAE76"/>
<path d="M12.5588 0C10.0866 0 7.66983 0.733112 5.61422 2.10663C3.5586 3.48015 1.95644 5.43238 1.01035 7.71646C0.064254 10.0005 -0.183288 12.5139 0.299027 14.9386C0.781343 17.3634 1.97185 19.5907 3.72001 21.3388C5.46817 23.087 7.69545 24.2775 10.1202 24.7598C12.545 25.2421 15.0583 24.9946 17.3424 24.0485C19.6265 23.1024 21.5787 21.5002 22.9522 19.4446C24.3257 17.389 25.0588 14.9723 25.0588 12.5C25.0588 9.18479 23.7419 6.00537 21.3977 3.66117C19.0535 1.31696 15.8741 0 12.5588 0V0ZM12.815 19.4545C11.5823 19.4544 10.3695 19.1434 9.2888 18.5503L5.25022 19.6353L6.32768 15.6193C5.54275 14.1953 5.24774 12.5527 5.48809 10.9445C5.72843 9.33632 6.49081 7.85174 7.65779 6.71941C8.82478 5.58708 10.3317 4.8698 11.9464 4.67803C13.5611 4.48625 15.194 4.83063 16.5938 5.65813C17.9935 6.48562 19.0824 7.75033 19.6928 9.25749C20.3031 10.7646 20.401 12.4306 19.9715 13.9989C19.5419 15.5672 18.6087 16.9508 17.3156 17.9366C16.0224 18.9224 14.4411 19.4557 12.815 19.4545Z" fill="#DDAE76"/>
</g>
<defs>
<clipPath id="clip0_2_53">
<rect width="25" height="25" fill="white" transform="translate(0.0588379)"/>
</clipPath>
</defs>
</svg>
