<svg xmlns="http://www.w3.org/2000/svg" viewBox="0 0 55.9 55.52"><defs><style>.cls-1{fill:#e2c18d;}.cls-2{fill:#d1d4d5;}</style></defs><g id="Layer_2" data-name="Layer 2"><g id="Layer_1-2" data-name="Layer 1"><path class="cls-1" d="M43.32,49.41a.69.69,0,0,1,.48,1.25,28,28,0,0,1-30,1,.69.69,0,0,1-.33-.45,17.64,17.64,0,0,1-.35-2.84,17.23,17.23,0,0,1,5.24-13.13.68.68,0,0,1,1.11.26A22,22,0,0,0,43.32,49.41Z"/><path class="cls-1" d="M53.29,19.23a.68.68,0,0,1,1.33-.09,27.95,27.95,0,0,1-7.82,29,.7.7,0,0,1-.53.17,16.67,16.67,0,0,1-2.82-.49,17.21,17.21,0,0,1-11-8.85.69.69,0,0,1,.57-1A22.05,22.05,0,0,0,52.83,21.5,22.82,22.82,0,0,0,53.29,19.23Z"/><path class="cls-1" d="M11.54,48.7a.68.68,0,0,1-1,.82A27.93,27.93,0,0,1,.79,21.14a.69.69,0,0,1,.33-.45,17.53,17.53,0,0,1,2.61-1.16A17.2,17.2,0,0,1,17.82,20.7a.68.68,0,0,1,.08,1.14,22.06,22.06,0,0,0-7.24,24.72A22.34,22.34,0,0,0,11.54,48.7Z"/><rect class="cls-2" x="21.38" y="21.24" width="12.69" height="12.69" rx="3.07" transform="translate(-11.38 27.68) rotate(-45)"/><path class="cls-2" d="M45.47,7.48A.78.78,0,0,1,45,7.3a24.87,24.87,0,0,0-5.28-3.57,26,26,0,0,0-8.16-2.48A.64.64,0,0,1,31,.54.67.67,0,0,1,31.76,0a27.13,27.13,0,0,1,8.62,2.62A25.51,25.51,0,0,1,46,6.4a.59.59,0,0,1,0,.89A.69.69,0,0,1,45.47,7.48Z"/><path class="cls-1" d="M53.05,15.52a27.77,27.77,0,0,0-2.8-4.67A1,1,0,0,0,49,10.6c-.36.23-.79.66-1.24.9s-.57-.13-.84-.38A34,34,0,0,0,38.6,5.5c-8.75-3.63-18-5.22-26.1-.61A24.38,24.38,0,0,0,6,10.21c-.67,1-1.46,1.95-2.09,3a35.07,35.07,0,0,0-2.12,4.25v0c.31,1,1.09.59,1.57.18A22.47,22.47,0,0,1,19,12.49a25.28,25.28,0,0,1,15.6,6.66A32.16,32.16,0,0,1,38.08,23c.77,1,1.83,3.05,3.24,3.11a2.19,2.19,0,0,0,.91-.23,20.34,20.34,0,0,0,10.84-9.77A.66.66,0,0,0,53.05,15.52Zm-6.44.84a.5.5,0,0,1-.33.12.53.53,0,0,1-.41-.2,8.42,8.42,0,0,0-1.24-1.22A8.12,8.12,0,0,0,42.94,14a.53.53,0,1,1,.44-1,9.47,9.47,0,0,1,1.92,1.19,9,9,0,0,1,1.39,1.37A.54.54,0,0,1,46.61,16.36Z"/></g></g></svg>